<mxfile host="app.diagrams.net" modified="2024-01-26T09:52:42.583Z" agent="Mozilla/5.0 (X11; Linux x86_64) AppleWebKit/537.36 (KHTML, like Gecko) Chrome/102.0.0.0 Safari/537.36" etag="EWHDOP2s7p4F7W75yBbp" version="23.0.2" type="github">
  <diagram name="Page-1" id="_Cs8vTa_HBNqC2KjxhkO">
    <mxGraphModel dx="691" dy="387" grid="1" gridSize="10" guides="1" tooltips="1" connect="1" arrows="1" fold="1" page="1" pageScale="1" pageWidth="850" pageHeight="1100" math="0" shadow="0">
      <root>
        <mxCell id="0" />
        <mxCell id="1" parent="0" />
        <mxCell id="xN2qINiyRoGXADX-jVCw-1" value="预测&lt;br&gt;V" style="rounded=0;whiteSpace=wrap;html=1;" vertex="1" parent="1">
          <mxGeometry x="320" y="480" width="120" height="60" as="geometry" />
        </mxCell>
        <mxCell id="xN2qINiyRoGXADX-jVCw-2" value="RTK观测&lt;br&gt;" style="rounded=0;whiteSpace=wrap;html=1;" vertex="1" parent="1">
          <mxGeometry x="320" y="350" width="120" height="60" as="geometry" />
        </mxCell>
        <mxCell id="xN2qINiyRoGXADX-jVCw-3" value="wheel观测&lt;br&gt;&lt;font style=&quot;font-size: 6px;&quot;&gt;Rv&lt;sub&gt;wheel=V&lt;br&gt;&lt;/sub&gt;&lt;/font&gt;&lt;font style=&quot;font-size: 6px;&quot;&gt;δh(x) /δh(y) = [0&lt;sub&gt;3x3,&lt;/sub&gt;I&lt;sub style=&quot;border-color: var(--border-color);&quot;&gt;3x3,&lt;/sub&gt;&lt;span style=&quot;border-color: var(--border-color);&quot;&gt;0&lt;sub style=&quot;vertical-align: sub; border-color: var(--border-color);&quot;&gt;3x12&lt;/sub&gt;&lt;sub&gt;]&lt;/sub&gt;&lt;br&gt;&lt;/span&gt;&lt;sub&gt;&lt;br&gt;&lt;/sub&gt;&lt;br&gt;&lt;/font&gt;" style="rounded=0;whiteSpace=wrap;html=1;" vertex="1" parent="1">
          <mxGeometry x="240" y="610" width="240" height="110" as="geometry" />
        </mxCell>
        <mxCell id="xN2qINiyRoGXADX-jVCw-9" value="" style="edgeStyle=orthogonalEdgeStyle;rounded=0;orthogonalLoop=1;jettySize=auto;html=1;" edge="1" parent="1" source="xN2qINiyRoGXADX-jVCw-4">
          <mxGeometry relative="1" as="geometry">
            <mxPoint x="290" y="585" as="targetPoint" />
          </mxGeometry>
        </mxCell>
        <mxCell id="xN2qINiyRoGXADX-jVCw-4" value="ESKF初始化&lt;br&gt;&lt;font style=&quot;font-size: 6px;&quot;&gt;初始化全局变量&lt;br&gt;&lt;div style=&quot;text-align: left;&quot;&gt;&lt;span style=&quot;background-color: initial;&quot;&gt;监听 经、纬、高、航 imu wheel&lt;/span&gt;&lt;/div&gt;&lt;/font&gt;&lt;div style=&quot;text-align: left;&quot;&gt;&lt;font style=&quot;background-color: initial; font-size: 6px;&quot;&gt;1&lt;/font&gt;&lt;font style=&quot;background-color: initial;&quot;&gt;&lt;font style=&quot;font-size: 6px;&quot;&gt;.初始化陀螺仪&amp;amp;加速度计零偏&lt;/font&gt;&lt;/font&gt;&lt;/div&gt;&lt;font style=&quot;&quot;&gt;&lt;div style=&quot;text-align: left;&quot;&gt;&lt;span style=&quot;font-size: 6px; background-color: initial;&quot;&gt;2.等待有效RTK点&lt;/span&gt;&lt;/div&gt;&lt;span style=&quot;font-size: 6px;&quot;&gt;&lt;div style=&quot;text-align: left;&quot;&gt;&lt;span style=&quot;background-color: initial;&quot;&gt;3.等待有效观测值&lt;/span&gt;&lt;/div&gt;&lt;/span&gt;&lt;/font&gt;" style="rounded=0;whiteSpace=wrap;html=1;" vertex="1" parent="1">
          <mxGeometry x="40" y="540" width="140" height="90" as="geometry" />
        </mxCell>
      </root>
    </mxGraphModel>
  </diagram>
</mxfile>
